<?xml version="1.0" encoding="UTF-8"?>
<svg id="Capa_1" data-name="Capa 1" xmlns="http://www.w3.org/2000/svg" viewBox="0 0 800 744.89">
  <defs>
    <style>
      .cls-1 {
        fill: #fff;
      }
    </style>
  </defs>
  <path class="cls-1" d="M627.2,399.27c-95.45,0-172.85,77.42-172.85,172.85s77.4,172.78,172.85,172.78,172.8-77.37,172.8-172.78-77.4-172.85-172.8-172.85ZM638.29,699.86v-14.92c0-6.17-4.98-11.16-11.09-11.16s-11.14,5-11.14,11.16v14.92c-61.88-5.32-111.32-54.77-116.64-116.64h14.97c6.11,0,11.11-4.98,11.11-11.09s-5-11.14-11.11-11.14h-14.97c5.32-61.9,54.77-111.29,116.64-116.64v14.95c0,6.15,4.98,11.14,11.14,11.14s11.09-5,11.09-11.14v-14.95c61.91,5.35,111.34,54.74,116.64,116.64h-14.97c-6.15,0-11.11,4.93-11.11,11.14s4.98,11.09,11.11,11.09h14.97c-5.28,61.87-54.73,111.31-116.64,116.64Z"/>
  <path class="cls-1" d="M691.59,555.41h-40.09c-5.35-7.71-14.22-12.83-24.3-12.83-.15,0-.32.05-.5.05l-36.53-51.43c-5.32-7.48-15.75-9.22-23.26-3.93-7.48,5.35-9.28,15.8-3.93,23.3l36.56,51.45c-1.12,3.16-1.84,6.52-1.84,10.1,0,16.29,13.18,29.48,29.5,29.48,10.07,0,19-5.07,24.3-12.81h40.09c9.2,0,16.68-7.44,16.68-16.66,0-9.27-7.48-16.73-16.68-16.73Z"/>
  <path class="cls-1" d="M166.33,228.12c30.24,0,54.72-24.5,54.72-54.71V54.71c0-30.22-24.47-54.71-54.72-54.71s-54.68,24.49-54.68,54.71v118.72c0,30.2,24.46,54.7,54.68,54.7Z"/>
  <path class="cls-1" d="M501.41,228.12c30.25,0,54.72-24.5,54.72-54.71V54.71c0-30.22-24.47-54.71-54.72-54.71s-54.68,24.49-54.68,54.71v118.72c-.01,30.2,24.49,54.7,54.68,54.7Z"/>
  <path class="cls-1" d="M240.47,380.02c0-15.62-12.63-28.27-28.28-28.27h-52.42c-15.62,0-28.3,12.65-28.3,28.27v52.4c0,15.64,12.69,28.33,28.3,28.33h52.42c15.64,0,28.28-12.69,28.28-28.33v-52.4Z"/>
  <path class="cls-1" d="M388.4,380.05c0-15.62-12.66-28.26-28.25-28.26h-52.45c-15.62,0-28.26,12.64-28.26,28.26v52.41c0,15.59,12.64,28.28,28.26,28.28h52.45c15.59,0,28.25-12.69,28.25-28.28v-52.41Z"/>
  <path class="cls-1" d="M455.62,351.75c-15.64,0-28.31,12.65-28.31,28.27v52.4c0,14.15,10.55,25.31,24.07,27.43,20.74-32.3,50.11-58.46,84.88-75.36v-4.47c0-15.62-12.64-28.27-28.28-28.27h-52.37Z"/>
  <path class="cls-1" d="M159.77,493.8c-15.62,0-28.31,12.64-28.31,28.26v52.42c0,15.62,12.69,28.26,28.31,28.26h52.45c15.62,0,28.25-12.64,28.25-28.26v-52.42c0-15.62-12.63-28.26-28.25-28.26h-52.45Z"/>
  <path class="cls-1" d="M360.1,493.82h-52.4c-15.62,0-28.26,12.66-28.26,28.28v52.38c0,15.62,12.64,28.26,28.26,28.26h52.4c15.59,0,28.26-12.64,28.26-28.26v-52.38c0-15.62-12.66-28.28-28.26-28.28Z"/>
  <path class="cls-1" d="M436.52,656.88H170.55c-45.78,0-83.04-37.25-83.04-82.99v-277.79h492.76v72.69c15.1-3.48,30.74-5.51,46.93-5.51,13.88,0,27.43,1.43,40.57,4.04V106.05h-78.81v67.37c0,48.26-39.24,87.52-87.54,87.52s-87.52-39.25-87.52-87.52v-67.37h-160.02v67.37c0,48.26-39.27,87.52-87.54,87.52s-87.52-39.25-87.52-87.52v-67.37H0v467.83c0,94.16,76.36,170.55,170.55,170.55h326.65c3.88,0,7.71-.32,11.52-.57-31.38-21.68-56.45-51.78-72.2-86.99Z"/>
</svg>