<?xml version="1.0" encoding="UTF-8"?>
<svg id="Duplicate--Streamline-Ionic-Filled.svg" xmlns="http://www.w3.org/2000/svg" version="1.1" viewBox="0 0 48 48">
  <!-- Generator: Adobe Illustrator 29.1.0, SVG Export Plug-In . SVG Version: 2.1.0 Build 142)  -->
  <defs>
    <style>
      .st0 {
        fill: #fff;
      }
    </style>
  </defs>
  <path class="st0" d="M38.7,5.5c-.5-1.5-1.5-2.7-2.8-3.7-1.3-.9-2.8-1.4-4.4-1.4H8c-2,0-3.9.8-5.3,2.2C1.3,4.1.5,6,.5,8v23.5c0,1.6.5,3.1,1.4,4.4.9,1.3,2.2,2.2,3.7,2.8V13.9c0-2.2.9-4.4,2.5-5.9,1.6-1.6,3.7-2.5,5.9-2.5,0,0,24.8,0,24.8,0Z"/>
  <rect x="17" y="14.6" width="23.3" height="24.1"/>
  <path class="st0" d="M39,7.3H15.4c-2,0-3.9.8-5.3,2.2-1.4,1.4-2.2,3.3-2.2,5.3v23.5c0,2,.8,3.9,2.2,5.3,1.4,1.4,3.3,2.2,5.3,2.2h23.5c2,0,3.9-.8,5.3-2.2,1.4-1.4,2.2-3.3,2.2-5.3V14.9c0-2-.8-3.9-2.2-5.3-1.4-1.4-3.3-2.2-5.3-2.2ZM35.6,28.3h-6.7v6.7c0,.9-.7,1.7-1.6,1.7-.2,0-.5,0-.7-.1-.2,0-.4-.2-.6-.4-.2-.2-.3-.3-.4-.6,0-.2-.1-.4-.1-.7v-6.7h-6.7c-.9,0-1.7-.7-1.7-1.6,0-.2,0-.5.1-.7,0-.2.2-.4.4-.6.2-.2.3-.3.6-.4.2,0,.4-.1.7-.1h6.7v-6.7c0-.9.7-1.7,1.6-1.7.2,0,.5,0,.7.1.2,0,.4.2.6.4.2.2.3.3.4.6,0,.2.1.4.1.7v6.7h6.7c.2,0,.5,0,.7.1.2,0,.4.2.6.4.2.2.3.4.4.6,0,.2.1.4.1.7,0,.9-.8,1.6-1.7,1.6h0Z"/>
</svg>