<?xml version="1.0" encoding="UTF-8"?>
<svg id="Layer_1" data-name="Layer 1" xmlns="http://www.w3.org/2000/svg" viewBox="0 0 2477.61 1635.31">
  <defs>
    <style>
      .cls-1 {
        fill: #fff;
        fill-rule: evenodd;
      }
    </style>
  </defs>
  <path class="cls-1" d="M1183.31,1181.78c-176.86-26.83-312.82-179.89-312.82-364.13s135.96-337.29,312.82-364.12V110.94H110.92v316.89h374.5c30.64,0,55.47,24.82,55.47,55.46v668.71c-.03,30.63-24.86,55.45-55.49,55.45H110.92v316.92h1072.39v-342.59h0ZM1294.25,110.94v342.61c176.86,26.83,312.82,179.89,312.82,364.12s-135.96,337.3-312.82,364.13v342.59h1072.4v-316.92h-374.48c-30.65,0-55.47-24.82-55.47-55.45V483.29c0-30.64,24.82-55.46,55.47-55.46h374.48V110.94h-1072.4ZM2422.12,1635.31H55.47c-30.62,0-55.47-24.82-55.47-55.47V55.46C0,24.82,24.85,0,55.47,0h2366.67c30.65,0,55.47,24.82,55.47,55.46v1524.38c-.04,30.63-24.86,55.47-55.49,55.47h0ZM1183.31,1068.99c-115.33-25.45-201.89-128.46-201.89-251.33s86.56-225.88,201.89-251.31v502.64h0ZM1294.25,566.35c115.32,25.44,201.88,128.45,201.88,251.31s-86.56,225.88-201.88,251.33v-502.64h0ZM2047.64,1096.53v-557.77h319.01v557.77h-319.01ZM110.92,1096.53v-557.77h319.01v557.77H110.92Z"/>
</svg>