<?xml version="1.0" encoding="UTF-8"?>
<svg id="Layer_1" xmlns="http://www.w3.org/2000/svg" version="1.1" viewBox="0 0 800 800">
  <!-- Generator: Adobe Illustrator 29.4.0, SVG Export Plug-In . SVG Version: 2.1.0 Build 152)  -->
  <defs>
    <style>
      .st0 {
        fill: none;
        stroke: #fff;
        stroke-linecap: round;
        stroke-miterlimit: 133.3;
        stroke-width: 50px;
      }
    </style>
  </defs>
  <path class="st0" d="M133.3,166.7h200M333.3,166.7c0,36.8,29.8,66.7,66.7,66.7s66.7-29.8,66.7-66.7M333.3,166.7c0-36.8,29.8-66.7,66.7-66.7s66.7,29.8,66.7,66.7M466.7,166.7h200M133.3,400h400M533.3,400c0,36.8,29.8,66.7,66.7,66.7s66.7-29.8,66.7-66.7-29.8-66.7-66.7-66.7-66.7,29.8-66.7,66.7ZM266.7,633.3h400M266.7,633.3c0-36.8-29.8-66.7-66.7-66.7s-66.7,29.8-66.7,66.7,29.8,66.7,66.7,66.7,66.7-29.8,66.7-66.7Z"/>
</svg>