<?xml version="1.0" encoding="UTF-8"?>
<svg id="Layer_1" data-name="Layer 1" xmlns="http://www.w3.org/2000/svg" viewBox="0 0 512 512.01">
  <defs>
    <style>
      .cls-1 {
        fill: #fff;
      }
    </style>
  </defs>
  <g id="layer1">
    <path class="cls-1" d="M166.45,0c-2,0-3.96.46-5.75,1.35L7.1,78.15C2.75,80.32,0,84.75,0,89.6v409.6c0,9.5,10,15.68,18.5,11.45l148.3-74.15,173.75,74.45c3.45,1.48,7.38,1.37,10.75-.3l153.6-76.8c4.35-2.16,7.1-6.6,7.1-11.45V12.8c0-9.5-10-15.68-18.5-11.45l-54.4,27.2,10.25,10.75,7.15,9.15,29.9-14.95v381l-141.2,70.6-173.75-74.45c-3.45-1.48-7.38-1.37-10.75.3L25.6,478.5V97.5L166.8,26.9l44.35,19,5.05-6.55,10.75-11.25,2.55-2.2L171.45,1.05c-1.58-.68-3.28-1.04-5-1.05ZM326.3,11.5l-12.9,1.35-12.7,2.65-12.4,3.9-11.9,5.05-11.3,6.3-10.65,7.4-9.85,8.5-8.95,9.4-7.9,10.2-6.9,11-5.7,11.65-4.5,12.2-3.25,12.5-1.95,12.85-.65,12.95.65,20.95,1.95,20.9,3.3,20.7,4.6,20.45,5.85,20.15,7.15,19.75,8.35,19.2,9.55,18.65,10.7,18.05,11.85,17.35,12.9,16.55,13.9,15.7h.05l6.15,5.55,7.05,4.45,7.6,3.3,8.1,2.05,8.3.85,8.3-.85,8.05-2.05,7.65-3.3,7.05-4.45,6.2-5.55,13.9-15.7,12.85-16.55,11.9-17.35,10.65-18.05,9.55-18.65,8.35-19.2,7.15-19.75,5.9-20.15,4.55-20.45,3.3-20.7,1.95-20.9.7-20.95-.7-12.95-1.95-12.85-3.2-12.5-4.55-12.2-5.7-11.65-6.8-11-7.95-10.2-9-9.4-9.85-8.5-10.6-7.4-11.3-6.3-11.95-5.05-12.4-3.9-12.7-2.65-12.9-1.35h-12.95ZM332.8,37l11.45.65,11.35,1.9,11.05,3.2,10.55,4.4,10.1,5.55,9.35,6.65,8.55,7.65,7.65,8.55,6.65,9.35,5.55,10.05,4.4,10.65,3.2,11,1.95,11.3.6,11.45-.6,19.4-1.85,19.25-3.05,19.1-4.2,18.95-5.45,18.55-6.55,18.2-7.75,17.8-8.8,17.2-9.9,16.65-10.85,16-11.95,15.25-12.8,14.5-4,3.45-4.5,2.5-4.95,1.5-5.2.7-5.2-.7-4.95-1.5-4.5-2.5-4-3.45-12.8-14.5-11.95-15.25-10.85-16-9.9-16.65-8.8-17.2-7.75-17.8-6.55-18.2-5.45-18.55-4.2-18.95-3.05-19.1-1.85-19.25-.6-19.4.65-11.45,1.9-11.3,3.15-11,4.4-10.65,5.6-10.05,6.65-9.35,7.65-8.55,8.55-7.65,9.35-6.65,10.05-5.55,10.65-4.4,11-3.2,11.3-1.9,11.5-.65ZM166.2,51c-7.07.11-12.71,5.93-12.6,13v307.2c-.24,17.31,25.84,17.31,25.6,0V64c.11-7.23-5.77-13.11-13-13ZM330.7,88.15l-8.15,1-7.9,2.35-7.45,3.45-6.8,4.7-5.9,5.7-4.95,6.6-3.85,7.35-2.65,7.8-1.3,8.1v8.3l1.3,8.1,2.65,7.8,3.85,7.3,4.95,6.6,5.9,5.65,6.8,4.7,7.45,3.55,7.9,2.3,8.15,1,8.25-.15,8.1-1.7,7.7-2.95,7.15-4.1,6.4-5.2,5.45-6.15,4.4-7,3.2-7.55,2-8,.65-8.25v-.05l-.65-8.2-2-8-3.2-7.6-4.4-6.95-5.45-6.15-6.4-5.3-7.15-4.1-7.7-2.9-8.1-1.7-8.25-.35ZM332.8,113.75l5.65.7,5.45,1.9,4.85,3.05,4.1,4.05,3.05,4.8,1.85,5.45.65,5.7-.65,5.65-1.85,5.45-3.05,4.85-4.1,4.1-4.85,3.05-5.45,1.9-5.65.65-5.7-.65-5.45-1.9-4.8-3.05-4.05-4.1-3.05-4.85-1.9-5.45-.65-5.65.65-5.7,1.9-5.45,3.05-4.8,4.05-4.05,4.8-3.05,5.45-1.9,5.7-.7ZM358.4,405l-.95.4-11.85,3-12.8,1.35v38.25c-.25,17.31,25.84,17.31,25.6,0v-43Z"/>
  </g>
</svg>