<?xml version="1.0" encoding="UTF-8"?>
<svg id="Layer_1" xmlns="http://www.w3.org/2000/svg" version="1.1" viewBox="0 0 109.5 122.9">
  <!-- Generator: Adobe Illustrator 29.1.0, SVG Export Plug-In . SVG Version: 2.1.0 Build 142)  -->
  <defs>
    <style>
      .st0 {
        fill: #fff;
        fill-rule: evenodd;
      }
    </style>
  </defs>
  <path class="st0" d="M2.3,9.6h38.3V3.8C40.6,1.7,42.3,0,44.4,0h21.1c2.1,0,3.8,1.7,3.8,3.8v5.9h37.8c1.3,0,2.3,1.1,2.3,2.3v11.5H0v-11.5c0-1.3,1.1-2.3,2.3-2.3h0ZM8.7,29.6h92.9c1.9,0,3.7,1.6,3.5,3.5l-7.9,86.2c-.2,1.9-1.6,3.5-3.5,3.5H16.4c-1.9,0-3.4-1.6-3.5-3.5L5.2,33.1c-.2-1.9,1.6-3.5,3.5-3.5h0ZM69.1,43h9.9v65.3h-9.9V43h0ZM30.1,43h9.9v65.3h-9.9V43h0ZM49.6,43h9.9v65.3h-9.9V43h0Z"/>
</svg>