<?xml version="1.0" encoding="UTF-8"?>
<svg id="Layer_1" data-name="Layer 1" xmlns="http://www.w3.org/2000/svg" viewBox="0 0 560 760">
  <defs>
    <style>
      .cls-1 {
        fill: #fff;
      }
    </style>
  </defs>
  <path class="cls-1" d="M240,80c0-22.09,17.91-40,40-40s40,17.91,40,40v420c0,22.09-17.91,40-40,40s-40-17.91-40-40V80Z"/>
  <path class="cls-1" d="M305.61,70.73c16.97-14.14,19.26-39.37,5.12-56.34-14.14-16.97-39.36-19.26-56.34-5.12l-120,100c-16.97,14.14-19.26,39.37-5.12,56.34,14.14,16.97,39.37,19.26,56.34,5.12l120-100Z"/>
  <path class="cls-1" d="M254.39,70.73c-16.97-14.14-19.26-39.37-5.12-56.34,14.14-16.97,39.37-19.26,56.34-5.12l120,100c16.97,14.14,19.26,39.37,5.12,56.34-14.14,16.97-39.36,19.26-56.34,5.12l-120-100Z"/>
  <path class="cls-1" d="M400,320c-22.09,0-40-17.91-40-40s17.91-40,40-40h40c64.93,0,120,46.6,120,107.69v304.62c0,61.1-55.07,107.69-120,107.69H120c-64.93,0-120-46.6-120-107.69v-304.62c0-61.1,55.07-107.69,120-107.69h40c22.09,0,40,17.91,40,40s-17.91,40-40,40h-40c-23.43,0-40,14.02-40,27.69v304.62c0,13.68,16.57,27.69,40,27.69h320c23.44,0,40-14.02,40-27.69v-304.62c0-13.68-16.56-27.69-40-27.69h-40Z"/>
</svg>