<?xml version="1.0" encoding="UTF-8"?>
<svg id="Layer_1" data-name="Layer 1" xmlns="http://www.w3.org/2000/svg" xmlns:xlink="http://www.w3.org/1999/xlink" viewBox="0 0 303.2 283">
  <defs>
    <style>
      .cls-1, .cls-2 {
        stroke: #000;
        stroke-miterlimit: 10;
        stroke-width: 5px;
      }

      .cls-1, .cls-2, .cls-3 {
        fill: #02d1e3;
      }

      .cls-4 {
        fill: url(#linear-gradient-5);
      }

      .cls-5 {
        fill: url(#linear-gradient-4);
      }

      .cls-6 {
        fill: url(#linear-gradient-3);
      }

      .cls-7 {
        fill: url(#linear-gradient-2);
      }

      .cls-8 {
        fill: url(#linear-gradient);
      }

      .cls-2 {
        stroke-linecap: round;
      }
    </style>
    <linearGradient id="linear-gradient" x1="117.45" y1="165.38" x2="206.08" y2="11.86" gradientUnits="userSpaceOnUse">
      <stop offset="0" stop-color="#02497d"/>
      <stop offset="1" stop-color="#0371a5"/>
    </linearGradient>
    <linearGradient id="linear-gradient-2" x1="97.28" y1="263.95" x2="131.45" y2="263.95" xlink:href="#linear-gradient"/>
    <linearGradient id="linear-gradient-3" x1="130.18" y1="263.95" x2="146.14" y2="263.95" xlink:href="#linear-gradient"/>
    <linearGradient id="linear-gradient-4" x1="141.65" y1="263.95" x2="188.01" y2="263.95" xlink:href="#linear-gradient"/>
    <linearGradient id="linear-gradient-5" x1="183.07" y1="263.95" x2="232.02" y2="263.95" xlink:href="#linear-gradient"/>
  </defs>
  <circle class="cls-8" cx="161.76" cy="88.62" r="88.62"/>
  <g>
    <path class="cls-3" d="M215.85,82.03c-16.34,0-28.44-6.63-43.76-15.02-4.17-2.28-8.48-4.65-13.22-7.07-13.24-6.77-32.7-14.84-50.22-14.84-1.33,0-2.65.05-3.91.14-24.25,1.82-38.07,15.76-38.2,15.9l-3.83-3.19c.7-.99,17.58-24.26,51.89-24.26,2.34,0,4.75.11,7.14.33,24.21,2.24,39.1,8.82,54.87,15.78,7.25,3.2,14.76,6.52,23.62,9.65,6.1,2.16,11.98,3.25,17.49,3.25,15.16,0,23.68-8.1,26.89-11.15l.38-.36c2.86-2.7,9.4-13,11.68-16.74l5.95-9.77-1.33,11.36c-.05.44-5.53,43.69-41.72,45.86-1.24.07-2.49.11-3.71.11Z"/>
    <path d="M258.79,35.77s-4.87,41.59-39.38,43.66c-1.21.07-2.39.11-3.56.11-20,0-33.6-10.45-55.85-21.82-14.24-7.28-33.84-15.11-51.36-15.11-1.38,0-2.75.05-4.1.15-25.48,1.91-39.81,16.65-39.81,16.65,0,0,16.44-23.2,49.85-23.2,2.23,0,4.53.1,6.91.32,34.65,3.2,49.28,15.18,77.88,25.3,6.88,2.44,12.98,3.39,18.32,3.39,16.84,0,26.14-9.52,28.98-12.19,3.74-3.52,12.1-17.26,12.1-17.26M266.41,13.62l-11.9,19.54c-3.1,5.09-8.89,13.99-11.26,16.22l-.39.37c-3.01,2.86-11,10.46-25.16,10.46-5.22,0-10.82-1.05-16.65-3.11-8.77-3.1-16.23-6.4-23.44-9.58-15.96-7.05-31.03-13.71-55.65-15.98-2.47-.23-4.95-.34-7.37-.34-35.59,0-53.2,24.28-53.93,25.31l7.67,6.38c.12-.12,13.48-13.42,36.6-15.15,1.2-.09,2.45-.14,3.72-.14,9.39,0,25.53,2.53,49.08,14.56,4.71,2.41,9.01,4.76,13.16,7.04,15.63,8.57,27.98,15.33,44.96,15.33,1.27,0,2.56-.04,3.86-.12,15.96-.96,28.68-9.7,36.77-25.29,5.89-11.34,7.22-22.31,7.28-22.77l2.66-22.73h0Z"/>
  </g>
  <g>
    <path class="cls-3" d="M38.46,174.07c2.56-2.23,63.37-54.76,113.29-68.77,18.09-5.07,32.39-7.54,43.73-7.54,13.93,0,23.8,3.76,31.07,11.84,14.81,16.45-1.75,51.64-2.46,53.13l-3.34,6.99-1.38-7.62c-.04-.23-4.27-22.84-18.07-28.49-8.4-3.44-17.38-5.11-27.45-5.11-16.29,0-33.77,4.62-47.18,8.64-26.1,7.83-84.75,40.67-85.34,41l-21.28,11.94,18.41-16.01Z"/>
    <path d="M195.48,100.26c14.78,0,23.21,4.34,29.21,11.01,13.86,15.4-2.86,50.38-2.86,50.38,0,0-4.32-24.11-19.58-30.36-9.13-3.74-18.58-5.3-28.4-5.3-15.03,0-30.93,3.65-47.9,8.74-26.67,8-85.85,41.22-85.85,41.22,0,0,62.37-54.23,112.32-68.25,18.58-5.21,32.45-7.45,43.05-7.45M195.48,95.26c-11.57,0-26.1,2.5-44.41,7.63-21.26,5.96-46.97,19.45-76.41,40.1-21.8,15.28-37.68,29.05-37.84,29.19L0,204.2l42.55-23.88c.59-.33,59.01-33.04,84.84-40.79,25.22-7.56,38.08-8.53,46.46-8.53,9.74,0,18.41,1.61,26.5,4.93,10.38,4.25,15.47,20.66,16.56,26.62l2.77,15.2,6.66-13.93c.18-.38,4.45-9.37,6.99-20.45,3.63-15.84,1.98-27.76-4.92-35.43-7.78-8.64-18.24-12.66-32.93-12.66h0Z"/>
  </g>
  <path class="cls-2" d="M161.76,62.65s26.4,7.43,17.82,20.63c-10.94,16.82-48.7,29.3-54.29,32.34-.07.04,23.91-18.1,23.98-18.15,6.38-4.55,11.97-12.22,13.98-19.24,2.2-7.7-1.49-15.57-1.49-15.57Z"/>
  <circle class="cls-1" cx="184.71" cy="24.8" r="21.84"/>
  <g>
    <path class="cls-3" d="M20.33,235.78l2.24-12.58h37.6c3.26,0,5.44-1.63,5.44-4.49,0-2.04-1.5-3.33-4.08-3.33h-22.03c-8.98,0-14.07-4.89-14.07-12.1,0-9.31,7.21-16.93,19.31-16.93h35.97l-2.18,12.51h-35.97c-2.38,0-4.22,1.5-4.22,4.21,0,1.84,1.16,2.86,2.92,2.86h21.89c9.38,0,14.41,3.67,14.41,11.56,0,10.13-6.8,18.29-19.65,18.29H20.33Z"/>
    <path class="cls-3" d="M96.69,222.8l2.11-12.1h17.07c4.76,0,7.89-2.79,7.89-6.93,0-2.99-2.11-4.9-5.78-4.9h-23.12l-6.53,36.92h-12.51l8.7-49.43h35.63c10.47,0,16.25,5.71,16.25,14.75,0,12.44-8.98,21.69-22.64,21.69h-17.07Z"/>
    <path class="cls-3" d="M153.94,235.78c-12.65,0-20.87-9.04-20.87-21.21,0-16.59,13.46-28.22,29.58-28.22h12.44c13.05,0,21.15,8.23,21.15,20.19,0,16.18-13.6,29.24-29.85,29.24h-12.44ZM168.63,223.21c8.23,0,14.75-6.05,14.75-14.01,0-5.98-4.08-10.33-10.47-10.33h-12.44c-7.96,0-14.69,6.25-14.69,14.28,0,5.92,4.01,10.06,10.4,10.06h12.44Z"/>
    <path class="cls-3" d="M234.66,235.78l-9.25-13.19h-12.24l1.9-10.54h17.75c4.76,0,7.96-3.2,7.96-7.82,0-3.33-2.04-5.37-5.64-5.37h-23.8l-6.53,36.92h-12.51l8.7-49.43h36.31c10.33,0,16.11,5.92,16.11,15.16,0,9.79-5.3,16.52-13.12,19.45l12.17,14.82h-17.81Z"/>
    <path class="cls-3" d="M264.37,235.78l6.53-36.92h-17.61l2.18-12.51h47.73l-2.18,12.51h-17.54l-6.53,36.92h-12.58Z"/>
  </g>
  <g>
    <path class="cls-7" d="M97.28,282.49l6.53-37.07h9.43l-4.84,27.64h23.05l-1.68,9.43h-32.48Z"/>
    <path class="cls-6" d="M130.18,282.49l6.53-37.07h9.43l-6.53,37.07h-9.43Z"/>
    <path class="cls-5" d="M154.66,259.74l-4.03,22.74h-8.97l5.66-32.02c.61-3.42,2.8-5.56,5.66-5.56,1.38,0,2.24.41,3.32,1.63l18.72,21.72,4.03-23.3h8.98l-5.76,32.48c-.61,3.42-2.86,5.56-5.66,5.56-1.38,0-2.29-.46-3.31-1.63l-18.61-21.62Z"/>
    <path class="cls-4" d="M183.07,282.49l6.53-37.07h9.43l-6.53,37.07h-9.43ZM212.54,282.49l-13.21-15.15c-1.02-1.17-1.33-2.19-1.33-3.16,0-1.73.56-2.75,3.16-4.9l16.83-13.87h14.02l-23.05,18.31,17.24,18.77h-13.67Z"/>
  </g>
</svg>