<?xml version="1.0" encoding="UTF-8"?>
<svg id="Layer_1" data-name="Layer 1" xmlns="http://www.w3.org/2000/svg" xmlns:xlink="http://www.w3.org/1999/xlink" viewBox="0 0 368.5 181.99">
  <defs>
    <style>
      .cls-1 {
        fill: url(#linear-gradient);
      }

      .cls-2 {
        fill: #475770;
      }

      .cls-3 {
        fill: #fff;
      }

      .cls-4 {
        fill: #02d1e3;
      }
    </style>
    <linearGradient id="linear-gradient" x1="26.79" y1="88" x2="108.85" y2="88" gradientUnits="userSpaceOnUse">
      <stop offset="0" stop-color="#02497d"/>
      <stop offset="1" stop-color="#0371a5"/>
    </linearGradient>
  </defs>
  <g>
    <g>
      <polygon class="cls-3" points="78.06 58.25 85.28 70.9 87.99 76.06 113.72 32.18 92.58 32.18 78.06 58.25"/>
      <polygon class="cls-2" points="34.05 49.56 56.24 85.6 26.79 136.56 47.88 136.56 66.71 103.58 82.13 130.66 108.85 140.48 48.91 35.52 34.05 49.56"/>
    </g>
    <polygon class="cls-3" points="117.48 113.01 134.1 113.01 136.63 105.62 126.66 105.62 126.66 90.57 137.55 90.57 137.55 83.18 126.66 83.18 126.66 70.24 139.26 70.24 139.26 62.85 117.48 62.85 117.48 113.01"/>
    <path class="cls-3" d="M184.21,76.05c0-9.04-5.35-13.2-12.54-13.2h-13.99v50.16h9.17v-20.13h2.71c3.17,0,4.03,1.78,4.22,7.99.07,3.04.2,5.41.33,8.91.06,1.6.24,2.56.58,3.11l8.44-4.36c-.06-.97-.1-2.16-.12-3.7,0-1.12-.07-3.1-.07-4.49-.13-6.6-1.32-9.97-6.4-11.09v-.26c5.41-1.52,7.66-5.87,7.66-12.94ZM170.08,85.82h-3.23v-15.57h3.37c2.9,0,4.82,1.52,4.82,7.19,0,6.86-2.24,8.38-4.95,8.38Z"/>
    <path class="cls-3" d="M219.05,95.98c.2,1.39.4,2.9.4,4.69,0,4.69-1.65,5.94-4.22,5.94-2.97,0-4.29-1.72-4.29-4.55v-28.25c0-2.24,1.19-4.49,4.22-4.49,2.57,0,4.22,1.32,4.22,5.94,0,.99-.04,1.82-.11,2.61l7.5-3.87c-.03-8.79-5.17-12-12.08-12s-13.07,3.96-13.07,13.99v24.22c0,10.1,5.87,13.79,13,13.79s12.14-3.3,12.14-12.21c0-2.44-.2-4.75-.46-6.34l-7.26.53Z"/>
    <polygon class="cls-3" points="244.33 109.55 253.5 104.81 253.5 62.85 244.33 62.85 244.33 109.55"/>
    <polygon class="cls-3" points="278.19 70.24 285.05 70.24 270.86 107.66 270.86 113.01 289.48 113.01 291.58 105.62 281.15 105.62 294.95 68.2 294.95 62.85 274.18 62.85 278.19 70.24"/>
    <polygon class="cls-3" points="322.01 105.62 322.01 90.57 326.91 90.57 329.01 83.18 322.01 83.18 322.01 70.24 334.61 70.24 334.61 62.85 312.83 62.85 312.83 113.01 334.74 113.01 334.74 105.62 322.01 105.62"/>
    <polygon class="cls-1" points="48.91 35.52 34.05 49.56 56.24 85.6 26.79 136.56 47.88 136.56 66.71 103.58 82.13 130.66 108.85 140.48 48.91 35.52"/>
  </g>
  <g>
    <path class="cls-4" d="M170.73,153.62v-7.58h22.67c1.76,0,2.83-.82,2.83-2.3s-1.07-2.42-2.83-2.42h-13.28c-6.11,0-9.88-3.53-9.88-8.69s3.53-8.81,9.96-8.81h21.69v7.54h-21.69c-1.23,0-2.09.7-2.09,2.13s.86,2.13,2.09,2.13h13.2c6.52,0,10,2.75,10,8.82,0,5.25-3.28,9.18-10,9.18h-22.67Z"/>
    <path class="cls-4" d="M215.38,145.79v-7.3h10.29c2.54,0,4.06-1.39,4.06-3.57s-1.52-3.57-4.06-3.57h-13.94v22.26h-7.54v-29.81h21.48c7.22,0,11.48,4.22,11.48,10.86s-4.26,11.11-11.48,11.11h-10.29Z"/>
    <path class="cls-4" d="M251.29,153.62c-8.65,0-15.01-6.56-15.01-15.21s6.36-14.6,15.01-14.6h7.5c8.9,0,15.05,5.94,15.05,14.6s-6.31,15.21-15.05,15.21h-7.5ZM258.79,146.04c4.43,0,7.5-3.03,7.5-7.26s-3.12-7.42-7.5-7.42h-7.5c-4.26,0-7.42,3.16-7.42,7.42s3.07,7.26,7.42,7.26h7.5Z"/>
    <path class="cls-4" d="M299.96,153.62l-6.97-7.95h-7.38v-6.36h10.7c2.5,0,4.02-1.56,4.02-3.98s-1.52-3.98-4.02-3.98h-14.35v22.26h-7.54v-29.81h21.89c7.17,0,11.44,4.39,11.44,11.23,0,4.88-2.3,8.16-5.94,9.63l8.9,8.94h-10.74Z"/>
    <path class="cls-4" d="M317.88,153.62v-22.26h-10.62v-7.54h28.78v7.54h-10.58v22.26h-7.58Z"/>
  </g>
</svg>